<svg xmlns="http://www.w3.org/2000/svg" width="212" height="66" viewBox="0 0 212 66"><g transform="translate(-17 -17)"><path d="M783-844a32.793,32.793,0,0,1-12.845-2.593,32.891,32.891,0,0,1-10.49-7.072,32.889,32.889,0,0,1-7.072-10.489A32.79,32.79,0,0,1,750-877a32.793,32.793,0,0,1,2.593-12.845,32.891,32.891,0,0,1,7.072-10.49,32.891,32.891,0,0,1,10.49-7.072A32.793,32.793,0,0,1,783-910a32.794,32.794,0,0,1,12.845,2.593,32.892,32.892,0,0,1,10.49,7.072,32.893,32.893,0,0,1,7.072,10.49A32.793,32.793,0,0,1,816-877a32.791,32.791,0,0,1-2.593,12.845,32.89,32.89,0,0,1-7.072,10.489,32.892,32.892,0,0,1-10.49,7.072A32.794,32.794,0,0,1,783-844Zm-3-32.6a2,2,0,0,0-1.109.335l-8.394,5.6a2,2,0,0,0-.891,1.665,2,2,0,0,0,.891,1.663l8.394,5.6a1.992,1.992,0,0,0,1.11.336,1.99,1.99,0,0,0,1.109-.336l8.394-5.6a2,2,0,0,0,.891-1.663,2,2,0,0,0-.891-1.665l-8.394-5.6A2,2,0,0,0,780-876.6Zm7-16a1.991,1.991,0,0,0-1.109.336l-8.394,5.6a2,2,0,0,0-.891,1.663,2,2,0,0,0,.891,1.665l8.394,5.6A1.991,1.991,0,0,0,787-877.4a1.992,1.992,0,0,0,1.11-.336l8.394-5.6a2,2,0,0,0,.891-1.665,2,2,0,0,0-.891-1.663l-8.394-5.6A1.991,1.991,0,0,0,787-892.6Z" transform="translate(-733 927)"/><text transform="translate(108 64)" font-size="36" font-family="Futura-Medium, Futura" font-weight="500" letter-spacing="0.19em"><tspan x="0" y="0">SN</tspan><tspan y="0" font-family="LucidaGrande-Bold, Lucida Grande" font-weight="700">Λ</tspan><tspan y="0">X</tspan></text></g></svg>