<svg xmlns="http://www.w3.org/2000/svg" width="66" height="66" viewBox="0 0 66 66"><path d="M158-366a32.8,32.8,0,0,1-12.845-2.593,32.89,32.89,0,0,1-10.49-7.072,32.889,32.889,0,0,1-7.072-10.489A32.792,32.792,0,0,1,125-399a32.8,32.8,0,0,1,2.593-12.845,32.89,32.89,0,0,1,7.072-10.49,32.889,32.889,0,0,1,10.49-7.072A32.8,32.8,0,0,1,158-432a32.792,32.792,0,0,1,12.845,2.593,32.888,32.888,0,0,1,10.489,7.072,32.89,32.89,0,0,1,7.072,10.49A32.8,32.8,0,0,1,191-399a32.793,32.793,0,0,1-2.593,12.845,32.89,32.89,0,0,1-7.072,10.489,32.89,32.89,0,0,1-10.489,7.072A32.793,32.793,0,0,1,158-366Zm-3-32.6a1.994,1.994,0,0,0-1.109.335l-8.4,5.6a2,2,0,0,0-.89,1.663,2,2,0,0,0,.89,1.665l8.4,5.6A1.99,1.99,0,0,0,155-383.4a1.992,1.992,0,0,0,1.11-.336l8.394-5.6a2,2,0,0,0,.89-1.665,2,2,0,0,0-.89-1.663l-8.394-5.6A2,2,0,0,0,155-398.6Zm7-16a1.994,1.994,0,0,0-1.11.336l-8.394,5.6a2,2,0,0,0-.89,1.663,2,2,0,0,0,.89,1.665l8.394,5.6a2,2,0,0,0,1.11.337,1.993,1.993,0,0,0,1.11-.337l8.394-5.6a2,2,0,0,0,.89-1.665,2,2,0,0,0-.89-1.663l-8.394-5.6A1.994,1.994,0,0,0,162-414.6Z" transform="translate(-125 432)"/></svg>