<?xml version="1.0" encoding="utf-8"?>
<!-- Generator: Adobe Illustrator 24.1.0, SVG Export Plug-In . SVG Version: 6.00 Build 0)  -->
<svg version="1.1" id="레이어_1" xmlns="http://www.w3.org/2000/svg" xmlns:xlink="http://www.w3.org/1999/xlink" x="0px"
	 y="0px" viewBox="0 0 212 66" style="enable-background:new 0 0 212 66;" xml:space="preserve">
<style type="text/css">
	.st0{enable-background:new    ;}
</style>
<path d="M33,66c-4.4,0-8.8-0.9-12.8-2.6c-3.9-1.7-7.5-4.1-10.5-7.1c-3-3-5.4-6.6-7.1-10.5C0.9,41.8,0,37.4,0,33
	c0-4.4,0.9-8.8,2.6-12.8c1.7-3.9,4.1-7.5,7.1-10.5c3-3,6.6-5.4,10.5-7.1C24.2,0.9,28.6,0,33,0c4.4,0,8.8,0.9,12.8,2.6
	c3.9,1.7,7.5,4.1,10.5,7.1c3,3,5.4,6.6,7.1,10.5C65.1,24.2,66,28.6,66,33c0,4.4-0.9,8.8-2.6,12.8c-1.7,3.9-4.1,7.5-7.1,10.5
	c-3,3-6.6,5.4-10.5,7.1C41.8,65.1,37.4,66,33,66z M30,33.4c-0.4,0-0.8,0.1-1.1,0.3l-8.4,5.6c-0.6,0.4-0.9,1-0.9,1.7
	c0,0.7,0.3,1.3,0.9,1.7l8.4,5.6c0.3,0.2,0.7,0.3,1.1,0.3c0.4,0,0.8-0.1,1.1-0.3l8.4-5.6c0.6-0.4,0.9-1,0.9-1.7
	c0-0.7-0.3-1.3-0.9-1.7l-8.4-5.6C30.8,33.5,30.4,33.4,30,33.4z M37,17.4c-0.4,0-0.8,0.1-1.1,0.3l-8.4,5.6c-0.6,0.4-0.9,1-0.9,1.7
	c0,0.7,0.3,1.3,0.9,1.7l8.4,5.6c0.3,0.2,0.7,0.3,1.1,0.3c0.4,0,0.8-0.1,1.1-0.3l8.4-5.6c0.6-0.4,0.9-1,0.9-1.7
	c0-0.7-0.3-1.3-0.9-1.7l-8.4-5.6C37.8,17.5,37.4,17.4,37,17.4z"/>
<path d="M109.6,23.9l-3.3,2c-0.6-1.1-1.2-1.8-1.8-2.1c-0.6-0.4-1.3-0.6-2.3-0.6c-1.1,0-2.1,0.3-2.8,1c-0.8,0.6-1.1,1.4-1.1,2.4
	c0,1.3,1,2.4,3,3.2l2.7,1.1c2.2,0.9,3.8,2,4.8,3.3s1.5,2.9,1.5,4.7c0,2.5-0.8,4.6-2.5,6.2c-1.7,1.6-3.8,2.5-6.2,2.5
	c-2.4,0-4.3-0.7-5.8-2.1c-1.5-1.4-2.5-3.4-2.8-5.9l4.1-0.9c0.2,1.6,0.5,2.7,1,3.3c0.8,1.2,2.1,1.8,3.7,1.8c1.3,0,2.3-0.4,3.2-1.3
	s1.3-1.9,1.3-3.3c0-0.5-0.1-1-0.2-1.5s-0.4-0.8-0.7-1.2s-0.7-0.7-1.2-1s-1.1-0.6-1.8-0.9l-2.6-1.1c-3.7-1.6-5.6-3.9-5.6-6.9
	c0-2,0.8-3.7,2.3-5.1c1.6-1.4,3.5-2.1,5.8-2.1C105.4,19.3,107.8,20.9,109.6,23.9z"/>
<path d="M122.1,47V18l19.8,20.7V19.9h4.1v28.8L126.2,28v19H122.1z"/>
<g class="st0">
	<path d="M156.5,47l10.1-26h5.4l10.1,26h-5.6l-8-20.5l-8,20.5H156.5z"/>
</g>
<g class="st0">
	<path d="M198.3,32.8l-7.5-13h4.7l5.2,9.2l5.4-9.2h4.7l-7.8,13l8.2,14.2h-4.6l-6-10.4L194.5,47h-4.6L198.3,32.8z"/>
</g>
</svg>
