<?xml version="1.0" encoding="utf-8"?>
<!-- Generator: Adobe Illustrator 24.1.0, SVG Export Plug-In . SVG Version: 6.00 Build 0)  -->
<svg version="1.1" id="레이어_1" xmlns="http://www.w3.org/2000/svg" xmlns:xlink="http://www.w3.org/1999/xlink" x="0px"
	 y="0px" viewBox="0 0 27.8 31.2" style="enable-background:new 0 0 27.8 31.2;" xml:space="preserve">
<style type="text/css">
	.st0{fill:#FFFFFF;}
</style>
<g transform="translate(-17 -17)">
	<path class="st0" d="M33.3,17.3c0.7-0.4,1.5-0.4,2.2,0l8.4,5.6c0.9,0.6,1.2,1.9,0.6,2.8c-0.1,0.2-0.3,0.4-0.6,0.6l-8.4,5.6
		c-0.7,0.4-1.5,0.4-2.2,0l-8.4-5.6c-0.9-0.6-1.2-1.9-0.6-2.8c0.1-0.2,0.3-0.4,0.6-0.6L33.3,17.3z"/>
	<path class="st0" d="M28.5,47.9c-0.7,0.4-1.5,0.4-2.2,0l-8.4-5.6c-0.9-0.6-1.2-1.9-0.6-2.8c0.1-0.2,0.3-0.4,0.6-0.6l8.4-5.6
		c0.7-0.4,1.5-0.4,2.2,0l8.4,5.6c0.9,0.6,1.2,1.9,0.6,2.8c-0.1,0.2-0.3,0.4-0.6,0.6L28.5,47.9z"/>
</g>
</svg>
